<?xml version="1.0" standalone="no"?>
<!DOCTYPE svg PUBLIC "-//W3C//DTD SVG 20010904//EN"
 "http://www.w3.org/TR/2001/REC-SVG-20010904/DTD/svg10.dtd">
<svg version="1.0" xmlns="http://www.w3.org/2000/svg"
 width="512.000000pt" height="512.000000pt" viewBox="0 0 512.000000 512.000000"
 preserveAspectRatio="xMidYMid meet">

<g transform="translate(0.000000,512.000000) scale(0.100000,-0.100000)"
fill="#000000" stroke="none">
<path d="M1635 5113 c-63 -13 -123 -39 -196 -83 l-82 -50 -117 0 c-125 0 -174
-11 -279 -65 -67 -33 -146 -107 -173 -159 -11 -22 -24 -71 -29 -109 -5 -37
-11 -73 -15 -78 -3 -5 -52 -32 -108 -59 -121 -57 -192 -118 -278 -234 -82
-112 -98 -162 -108 -331 -7 -112 -14 -159 -38 -236 -64 -203 -67 -308 -13
-469 61 -180 109 -248 272 -385 156 -131 280 -207 367 -226 43 -9 58 -7 108
11 49 18 85 22 209 25 157 2 181 7 283 59 63 32 79 32 200 2 53 -14 118 -28
145 -31 27 -4 47 -12 47 -20 0 -7 -16 -60 -35 -118 -38 -115 -41 -140 -24
-198 14 -44 41 -74 157 -176 88 -78 110 -85 162 -58 37 19 50 43 50 92 0 35
-7 45 -89 124 l-90 85 35 100 c37 109 45 200 20 257 -27 63 -98 107 -172 107
-18 0 -91 13 -162 30 -181 42 -218 40 -323 -12 l-84 -43 -140 0 c-103 -1 -156
-6 -199 -19 -32 -9 -69 -15 -81 -12 -39 10 -169 101 -278 195 -97 84 -110 100
-147 174 -82 168 -87 249 -25 457 30 104 38 148 44 262 7 132 9 139 42 193 70
116 119 160 256 226 164 80 191 115 209 272 8 67 31 92 129 139 55 26 69 28
177 28 135 0 179 13 281 79 106 69 214 78 314 29 59 -30 87 -69 102 -146 20
-101 97 -189 211 -240 25 -12 91 -42 147 -67 123 -56 182 -62 256 -26 63 30
89 69 89 130 l0 48 37 -8 c20 -5 74 -20 120 -34 70 -21 105 -25 205 -25 67 0
159 5 205 10 47 5 87 7 90 4 3 -3 6 -78 6 -167 l0 -162 35 -65 c22 -42 66 -96
122 -152 47 -48 91 -95 96 -105 5 -10 22 -71 37 -136 31 -135 79 -241 130
-286 20 -17 69 -49 110 -71 55 -31 87 -57 126 -105 29 -35 69 -76 90 -89 82
-55 197 -59 342 -13 90 29 88 33 57 -88 -24 -95 -47 -135 -152 -268 -112 -140
-173 -203 -311 -320 -201 -169 -227 -233 -242 -603 -4 -109 -1 -189 10 -289
16 -141 14 -196 -9 -228 -7 -9 -56 -40 -107 -68 -117 -63 -173 -116 -200 -188
-18 -49 -20 -69 -14 -190 5 -107 3 -146 -8 -184 -20 -63 -69 -126 -136 -174
-29 -21 -112 -85 -184 -142 -293 -234 -385 -273 -504 -215 -35 18 -38 24 -50
83 -8 39 -33 100 -64 157 -43 80 -53 111 -69 202 -17 97 -27 122 -105 277 -92
184 -111 246 -101 338 7 70 -9 109 -56 133 -26 13 -38 14 -69 5 -62 -19 -74
-48 -73 -176 1 -134 27 -224 105 -360 71 -124 86 -162 104 -266 19 -106 40
-168 85 -240 17 -28 40 -88 51 -133 25 -98 46 -135 99 -170 53 -35 178 -76
232 -76 134 0 273 71 508 260 52 42 139 109 192 148 100 73 156 137 201 227
39 79 51 159 44 302 -8 148 -10 145 121 213 196 102 239 200 207 474 -14 121
-15 170 -6 327 15 272 18 278 185 419 148 124 337 336 430 482 46 72 81 179
101 304 24 146 6 207 -70 244 -56 27 -82 25 -225 -15 -182 -51 -183 -51 -270
45 -55 61 -92 91 -160 130 -105 60 -114 75 -156 250 -38 161 -61 207 -145 281
-38 34 -85 86 -104 115 l-35 53 2 158 c3 147 1 162 -20 209 -13 29 -37 65 -54
80 l-30 29 -121 -4 c-310 -12 -385 -8 -482 22 -118 38 -245 46 -295 20 -43
-22 -83 -94 -78 -140 2 -18 3 -33 1 -33 -2 0 -29 13 -61 28 -31 16 -76 34
-100 42 -23 7 -60 28 -81 46 -31 27 -41 45 -55 100 -9 36 -25 83 -36 103 -42
83 -172 169 -289 191 -53 10 -147 12 -186 3z"/>
<path d="M2130 1869 c-61 -24 -84 -82 -56 -137 20 -38 44 -52 91 -52 50 0 95
44 95 94 0 65 -72 117 -130 95z"/>
<path d="M4645 1743 c-46 -24 -93 -71 -145 -149 -44 -65 -53 -73 -109 -93
-116 -42 -138 -76 -171 -272 -13 -73 -33 -151 -51 -193 -104 -245 -68 -455 87
-506 22 -8 68 -11 114 -8 139 8 212 72 313 275 36 70 83 151 106 178 62 75
126 209 151 320 47 203 -5 381 -131 445 -46 24 -122 26 -164 3z m104 -237 c15
-61 14 -107 -5 -180 -22 -86 -65 -172 -119 -236 -25 -30 -75 -115 -112 -188
-74 -149 -103 -182 -164 -182 l-39 0 0 60 c0 39 9 82 26 127 46 123 65 188 82
293 l17 104 53 21 c70 27 113 63 163 138 75 112 80 114 98 43z"/>
</g>
</svg>
