<?xml version="1.0" standalone="no"?>
<!DOCTYPE svg PUBLIC "-//W3C//DTD SVG 20010904//EN"
 "http://www.w3.org/TR/2001/REC-SVG-20010904/DTD/svg10.dtd">
<svg version="1.0" xmlns="http://www.w3.org/2000/svg"
 width="512.000000pt" height="512.000000pt" viewBox="0 0 512.000000 512.000000"
 preserveAspectRatio="xMidYMid meet">

<g transform="translate(0.000000,512.000000) scale(0.100000,-0.100000)"
fill="#000000" stroke="none">
<path d="M2815 5110 c-72 -15 -158 -52 -182 -78 -34 -37 -32 -95 6 -133 36
-36 64 -37 156 -4 75 26 137 31 181 15 27 -11 27 -11 -57 -67 -111 -73 -147
-108 -175 -168 -44 -93 -26 -215 44 -289 15 -15 102 -80 195 -143 92 -63 167
-116 167 -118 0 -2 -51 19 -112 46 -156 70 -183 79 -242 79 -69 0 -143 -36
-187 -90 -19 -23 -58 -69 -87 -103 -29 -34 -65 -87 -80 -117 -24 -49 -27 -66
-27 -155 0 -116 17 -162 92 -245 57 -63 111 -85 196 -78 113 9 196 71 223 168
9 30 20 59 24 63 10 11 166 -126 191 -167 24 -39 24 -102 2 -143 -27 -47 -457
-525 -492 -546 -17 -10 -68 -22 -113 -27 -65 -8 -92 -16 -123 -38 -56 -39 -88
-101 -88 -171 0 -65 13 -94 79 -177 26 -32 52 -65 57 -72 6 -7 -36 10 -93 38
l-103 50 -156 212 c-138 187 -161 214 -197 228 -107 40 -119 65 -135 275 -13
187 -3 164 -164 384 -124 171 -161 202 -325 280 -68 32 -83 36 -161 36 -80 0
-90 -2 -138 -32 -46 -29 -61 -33 -122 -33 l-70 0 -17 38 c-20 46 -28 193 -13
249 6 23 20 51 30 64 l19 23 275 -44 274 -43 129 22 c77 13 139 29 154 40 16
11 37 49 58 102 76 195 108 235 232 293 82 38 105 57 115 98 9 37 -19 93 -56
108 -39 16 -77 8 -175 -40 -132 -64 -215 -157 -270 -304 -15 -39 -31 -76 -35
-82 -5 -6 -41 -16 -81 -23 -67 -11 -88 -9 -338 31 -246 38 -272 41 -323 29
-138 -31 -217 -170 -217 -383 0 -144 40 -256 120 -333 l41 -40 125 -4 c153 -4
187 2 226 40 39 37 67 37 146 -1 112 -53 143 -81 250 -228 l102 -140 10 -143
c14 -181 36 -252 102 -324 27 -29 69 -62 98 -76 47 -22 64 -41 191 -214 77
-104 145 -198 153 -208 7 -9 143 -80 301 -157 l287 -140 -22 -33 c-53 -79 -65
-118 -65 -212 0 -100 1 -102 110 -299 38 -67 62 -98 98 -124 38 -27 47 -40 47
-64 0 -16 -27 -219 -61 -451 -70 -484 -73 -534 -34 -612 42 -87 170 -205 222
-205 35 0 77 25 90 53 6 13 14 62 18 108 4 46 18 126 32 178 l25 93 194 262
c107 143 212 285 234 314 22 29 65 68 95 88 81 51 118 118 155 274 7 31 28 76
47 103 67 92 76 179 27 264 -33 58 -53 71 -208 139 -132 57 -136 60 -146 97
-6 20 -26 52 -44 70 -68 67 -298 179 -449 218 -70 19 -90 20 -135 11 -29 -6
-66 -21 -83 -33 -37 -26 -17 -45 -199 186 l-142 180 54 6 c165 19 197 43 480
359 286 318 303 345 303 485 -1 127 -27 177 -160 302 -55 52 -116 103 -135
113 -78 39 -159 33 -232 -17 -39 -27 -88 -110 -88 -150 0 -25 -31 -46 -63 -41
-35 5 -67 63 -67 123 0 57 8 72 114 204 32 40 56 61 70 61 12 0 89 -29 171
-65 174 -75 205 -79 286 -37 43 22 59 38 81 81 35 67 35 113 1 182 -26 50 -41
62 -218 184 -184 126 -190 132 -193 167 l-3 37 140 95 c120 83 142 103 161
142 37 76 14 162 -58 213 -70 49 -253 82 -347 61z m261 -3056 c78 -26 208 -86
270 -124 19 -13 37 -36 48 -63 25 -65 59 -91 207 -158 74 -33 140 -66 147 -73
10 -9 7 -19 -14 -46 -40 -55 -55 -87 -81 -184 -30 -109 -41 -128 -97 -164 -24
-15 -61 -47 -82 -72 -68 -79 -458 -608 -482 -652 -14 -29 -20 -35 -17 -18 15
75 96 668 102 741 8 118 -3 145 -88 221 -38 34 -69 66 -69 72 0 5 -22 47 -50
93 -63 106 -66 144 -15 223 19 30 40 80 46 110 12 54 58 120 85 120 6 0 47
-12 90 -26z"/>
<path d="M3815 4965 c-320 -63 -460 -118 -519 -203 -37 -54 -47 -89 -47 -160
0 -119 65 -210 181 -253 73 -27 82 -36 126 -135 34 -78 36 -87 26 -123 -30
-98 -16 -142 104 -346 69 -115 104 -145 171 -145 80 0 121 36 182 157 43 86
129 175 241 247 157 102 202 169 251 373 43 174 39 265 -14 376 -78 166 -228
259 -412 256 -38 -1 -169 -20 -290 -44z m400 -174 c22 -10 56 -33 74 -52 76
-75 89 -168 46 -329 -38 -141 -59 -170 -176 -246 -115 -74 -211 -167 -264
-255 l-38 -61 -44 77 c-30 51 -43 84 -40 99 3 11 10 37 14 56 14 56 -1 118
-58 233 -61 127 -114 181 -207 216 -47 17 -62 27 -70 49 -10 29 -2 61 20 79
32 27 197 75 383 112 226 45 301 49 360 22z"/>
<path d="M2315 4909 c-80 -46 -68 -163 19 -185 89 -22 159 98 94 163 -28 27
-84 39 -113 22z"/>
</g>
</svg>
