<?xml version="1.0" standalone="no"?>
<!DOCTYPE svg PUBLIC "-//W3C//DTD SVG 20010904//EN"
 "http://www.w3.org/TR/2001/REC-SVG-20010904/DTD/svg10.dtd">
<svg version="1.0" xmlns="http://www.w3.org/2000/svg"
 width="512.000000pt" height="512.000000pt" viewBox="0 0 512.000000 512.000000"
 preserveAspectRatio="xMidYMid meet">

<g transform="translate(0.000000,512.000000) scale(0.100000,-0.100000)"
fill="#000000" stroke="none">
<path d="M3573 4610 c-51 -30 -66 -71 -71 -190 l-5 -105 -95 -101 -95 -102
-97 33 c-199 67 -276 58 -480 -57 l-65 -37 -85 54 c-96 61 -153 78 -220 65
-74 -15 -75 -14 -94 45 -19 63 -53 108 -93 124 -40 16 -350 71 -401 71 -90 0
-144 -45 -208 -174 -30 -63 -36 -82 -31 -117 l5 -42 -53 7 c-67 8 -126 -13
-156 -55 -25 -36 -53 -184 -47 -250 3 -29 16 -62 35 -90 l31 -44 -37 -68 -37
-67 -57 51 -57 50 6 87 7 87 -78 115 c-90 132 -110 157 -147 176 -36 19 -70
18 -148 -4 l-65 -19 -95 45 c-150 70 -243 69 -343 -4 -94 -68 -110 -155 -50
-273 54 -105 84 -134 188 -180 71 -32 90 -45 88 -59 -4 -38 -43 -129 -75 -176
-115 -169 -119 -187 -88 -349 28 -143 31 -150 95 -210 l54 -52 -9 -70 c-21
-154 -9 -210 60 -300 85 -110 163 -121 329 -45 60 27 115 51 121 52 8 2 18
-16 25 -45 26 -95 78 -141 155 -134 35 3 74 21 173 81 136 83 175 117 194 168
33 93 7 153 -124 280 -78 75 -109 98 -137 104 -37 6 -106 2 -136 -9 -10 -4
-29 12 -57 47 l-42 52 14 49 c22 71 28 75 109 75 56 0 97 -9 200 -43 l130 -42
32 -92 c46 -134 106 -233 204 -336 92 -97 125 -117 193 -117 68 0 73 -12 59
-133 -10 -90 -8 -123 12 -287 13 -102 29 -197 36 -210 16 -30 94 -135 129
-173 52 -56 150 -56 203 0 44 48 158 275 158 316 0 20 -13 70 -30 112 -16 42
-30 78 -30 81 0 3 42 25 93 49 106 50 122 65 170 161 20 39 44 74 53 78 9 3
52 -3 95 -15 l79 -21 0 -97 c0 -150 31 -189 167 -215 l68 -12 0 -105 c0 -120
4 -129 97 -252 58 -76 175 -175 233 -197 67 -25 146 8 176 73 38 85 20 192
-50 296 -54 80 -50 93 26 85 76 -8 110 15 181 119 67 100 69 137 15 239 -41
79 -91 122 -161 141 l-43 11 3 86 3 85 138 -4 c132 -3 139 -2 192 24 46 22 67
43 130 126 95 126 103 143 126 253 30 145 26 193 -26 320 -24 60 -54 120 -67
134 -49 53 -132 74 -207 52 -19 -5 -36 -9 -37 -7 -1 1 -9 33 -17 71 l-16 68
38 40 37 41 83 -48 c71 -41 96 -50 165 -58 94 -12 123 -7 165 29 51 42 55 78
33 248 -15 108 -25 155 -39 175 -11 14 -58 48 -105 76 -84 48 -86 51 -103 105
-36 113 -85 184 -155 220 -43 22 -314 80 -373 80 -24 0 -56 -8 -74 -20z m244
-150 c165 -36 180 -47 218 -159 37 -113 51 -130 148 -184 48 -27 87 -53 87
-57 0 -11 19 -157 26 -199 l5 -33 -55 6 c-38 5 -79 21 -133 52 -133 76 -174
71 -276 -35 -80 -83 -86 -104 -57 -225 26 -111 43 -141 99 -168 41 -20 48 -20
108 -8 48 9 67 9 77 1 8 -7 31 -51 51 -99 34 -79 37 -92 32 -152 -12 -133 -24
-165 -103 -270 -41 -54 -83 -102 -94 -105 -12 -4 -85 -5 -164 -3 -133 3 -147
1 -172 -18 -59 -43 -68 -66 -72 -181 -7 -165 20 -219 124 -249 55 -16 81 -39
104 -94 12 -28 10 -34 -22 -82 l-34 -51 -64 -1 c-53 -1 -71 -6 -98 -26 -81
-61 -94 -141 -38 -230 67 -106 77 -130 74 -171 l-3 -40 -63 46 c-38 28 -85 76
-122 125 l-59 80 6 104 c5 94 4 107 -15 137 -28 46 -64 64 -149 79 l-73 12 0
95 c0 157 -24 186 -189 228 -114 30 -141 28 -206 -9 -32 -19 -52 -44 -89 -109
l-47 -85 -87 -40 c-156 -73 -180 -127 -122 -273 l33 -82 -56 -106 c-31 -58
-60 -107 -65 -109 -5 -1 -32 28 -59 65 l-50 68 -21 170 c-18 142 -20 182 -11
239 17 106 9 177 -25 221 -34 44 -95 74 -152 75 -37 0 -46 6 -111 73 -87 90
-143 184 -182 306 -43 133 -52 140 -242 201 -139 44 -167 50 -245 50 -150 0
-206 -43 -245 -188 -21 -77 -21 -83 -6 -124 22 -55 121 -166 166 -185 29 -12
44 -13 98 -2 l64 13 86 -86 c111 -111 111 -112 -36 -201 -60 -37 -115 -68
-121 -69 -7 -2 -18 18 -25 45 -15 61 -41 97 -86 120 -48 25 -89 18 -219 -42
-61 -28 -122 -51 -135 -51 -28 0 -82 64 -91 108 -4 17 -1 76 5 132 15 127 8
151 -67 222 l-58 54 -17 100 c-20 114 -17 131 37 197 50 63 81 123 111 218 47
144 24 189 -130 259 -92 42 -97 46 -131 103 -19 33 -34 69 -32 81 4 29 64 66
108 66 23 0 74 -17 131 -43 128 -60 138 -61 226 -37 42 11 77 19 78 18 1 -2
32 -48 69 -103 l66 -100 -6 -77 c-5 -53 -3 -87 6 -107 19 -46 172 -179 215
-187 82 -15 129 19 191 138 60 117 62 153 16 228 -31 50 -33 58 -27 110 12
101 8 96 79 92 111 -7 169 44 171 152 1 74 44 163 84 173 24 6 307 -40 349
-57 12 -5 22 -18 22 -27 0 -38 49 -123 82 -143 35 -21 97 -26 158 -11 45 10
66 2 164 -62 70 -46 86 -52 130 -52 43 1 66 9 150 57 108 62 177 84 234 74 20
-4 87 -23 148 -43 111 -36 112 -37 155 -20 34 13 70 46 154 136 61 66 115 132
122 148 7 15 12 72 13 126 0 90 1 97 20 97 11 0 81 -14 157 -30z"/>
<path d="M4213 2159 c-61 -18 -84 -56 -154 -256 l-66 -188 -49 -25 c-80 -41
-114 -116 -99 -218 6 -41 15 -55 77 -116 39 -37 86 -75 104 -82 66 -28 172
-12 233 33 42 32 65 86 80 188 12 78 14 81 66 130 70 66 87 117 60 184 -11 29
-20 85 -24 151 -7 120 -22 156 -81 189 -40 22 -93 26 -147 10z m87 -224 c0
-78 4 -104 21 -137 l21 -41 -51 -46 c-59 -53 -74 -85 -91 -199 -14 -92 -29
-112 -87 -112 -24 0 -45 10 -75 38 -57 49 -59 52 -56 86 3 24 12 34 52 55 27
14 58 37 68 51 10 14 45 104 79 200 33 96 65 180 71 187 6 7 19 13 29 13 17 0
19 -9 19 -95z"/>
<path d="M2857 1595 c-72 -25 -107 -75 -107 -151 0 -66 82 -235 147 -301 48
-49 236 -183 302 -215 25 -12 61 -18 117 -18 142 0 216 56 243 186 13 64 5 95
-49 185 -55 93 -93 120 -178 128 -76 7 -66 3 -186 89 -136 98 -213 124 -289
97z m232 -228 c118 -83 125 -86 191 -93 75 -7 81 -11 122 -84 21 -38 24 -51
16 -80 -13 -48 -32 -60 -101 -60 -58 0 -62 2 -182 85 -68 47 -137 101 -153
121 -37 44 -97 178 -89 198 11 27 71 1 196 -87z"/>
<path d="M4610 1540 c-80 -23 -105 -49 -150 -156 -79 -188 -85 -228 -46 -309
31 -66 140 -171 187 -180 48 -9 154 10 194 35 66 41 85 138 40 204 -14 20 -25
40 -25 44 0 4 20 34 45 67 72 96 73 161 3 240 -69 78 -125 90 -248 55z m140
-145 l24 -25 -22 -28 c-62 -80 -75 -105 -80 -152 -4 -41 0 -57 23 -95 15 -26
25 -48 23 -49 -9 -8 -84 -14 -93 -8 -5 4 -29 28 -52 54 -30 33 -43 56 -42 75
0 16 20 73 43 128 40 95 44 100 82 112 57 17 68 16 94 -12z"/>
<path d="M4115 1030 c-44 -10 -71 -29 -107 -77 -39 -52 -72 -56 -125 -16 -63
48 -212 43 -278 -9 -75 -59 -105 -159 -69 -234 30 -63 78 -83 401 -164 201
-50 257 -52 339 -10 173 87 222 193 152 329 -53 103 -89 138 -166 160 -94 27
-113 29 -147 21z m98 -152 c31 -10 47 -23 73 -65 40 -61 42 -82 12 -110 -54
-48 -103 -73 -145 -73 -38 0 -257 52 -425 101 -75 22 -84 36 -46 76 32 34 94
31 155 -7 90 -57 209 -35 267 49 31 44 45 48 109 29z"/>
</g>
</svg>
