<?xml version="1.0" standalone="no"?>
<!DOCTYPE svg PUBLIC "-//W3C//DTD SVG 20010904//EN"
 "http://www.w3.org/TR/2001/REC-SVG-20010904/DTD/svg10.dtd">
<svg version="1.0" xmlns="http://www.w3.org/2000/svg"
 width="512.000000pt" height="512.000000pt" viewBox="0 0 512.000000 512.000000"
 preserveAspectRatio="xMidYMid meet">

<g transform="translate(0.000000,512.000000) scale(0.100000,-0.100000)"
fill="#000000" stroke="none">
<path d="M4362 4804 c-108 -29 -160 -64 -326 -219 -254 -236 -387 -368 -402
-397 -17 -33 -18 -93 -2 -153 12 -44 11 -46 -15 -73 -23 -22 -36 -27 -75 -26
-53 0 -112 29 -112 54 0 9 12 32 26 51 68 90 81 166 44 240 -28 54 -59 71
-250 133 -208 69 -283 86 -374 86 -129 0 -226 -41 -330 -139 -72 -69 -123
-140 -216 -301 -134 -231 -192 -295 -334 -367 -78 -39 -147 -106 -210 -203
-86 -131 -98 -210 -43 -281 61 -80 164 -108 270 -72 l57 20 0 -56 c1 -148 30
-253 85 -308 36 -37 48 -43 84 -43 83 0 162 65 238 196 54 91 88 175 104 251
15 75 3 126 -41 177 l-30 34 55 165 c63 194 84 238 124 266 34 25 83 27 101 6
20 -24 4 -71 -51 -158 -73 -113 -91 -160 -92 -231 0 -103 40 -172 119 -202 66
-25 127 -15 240 40 53 25 106 46 119 46 l23 0 -17 -67 c-35 -134 -87 -215
-162 -254 -42 -21 -103 -25 -145 -9 -22 9 -36 6 -73 -12 -79 -39 -111 -108
-111 -241 0 -102 -15 -131 -84 -163 -75 -34 -133 -43 -335 -50 l-178 -7 1 116
c1 134 -8 155 -85 195 -83 43 -216 16 -259 -53 -16 -26 -20 -50 -20 -121 0
-49 -4 -94 -8 -99 -4 -6 -37 -32 -74 -58 -70 -49 -123 -108 -153 -167 -24 -49
-44 -69 -82 -85 -42 -18 -59 -57 -42 -97 22 -55 60 -60 138 -22 40 20 61 40
88 83 20 31 46 71 57 88 12 18 44 49 71 70 81 59 134 114 146 150 6 19 9 66 7
106 l-3 72 38 3 39 3 -7 -114 c-9 -131 2 -169 57 -201 29 -18 48 -19 243 -13
301 9 416 36 510 118 60 53 85 117 85 219 0 129 -2 126 83 122 189 -10 335
128 402 379 34 128 33 169 -5 207 -69 70 -166 68 -318 -3 -55 -26 -108 -45
-118 -43 -10 2 -24 15 -31 29 -17 36 -5 73 63 185 86 142 101 204 69 282 -63
149 -262 164 -382 28 -47 -54 -72 -111 -142 -328 -66 -203 -66 -220 1 -297 25
-29 29 -39 23 -70 -10 -56 -99 -231 -143 -281 l-39 -44 -14 39 c-15 44 -19
301 -6 368 7 33 5 41 -22 67 -16 17 -38 30 -48 30 -11 0 -52 -25 -92 -55 -78
-59 -134 -82 -176 -71 -54 14 -43 58 47 177 52 69 67 81 147 123 153 79 217
151 382 430 113 191 183 272 275 317 61 30 69 32 152 27 73 -4 118 -16 277
-69 131 -44 191 -69 193 -80 2 -8 -14 -40 -35 -70 -75 -109 -76 -186 -3 -259
58 -58 122 -84 210 -84 66 -1 82 3 129 30 100 56 137 140 110 251 l-13 56 85
81 c307 295 437 411 489 435 55 26 57 26 343 29 l287 3 0 -189 c0 -176 1 -191
21 -216 28 -36 80 -36 108 0 20 25 21 39 21 266 l0 239 -25 24 -24 25 -328 -1
c-251 0 -340 -4 -381 -15z"/>
<path d="M4995 4035 l-25 -24 0 -1304 0 -1304 -82 43 c-199 102 -320 132 -368
89 -71 -63 -66 -239 9 -340 20 -28 53 -52 107 -80 98 -50 114 -76 114 -187 l0
-76 -72 -12 c-40 -7 -84 -17 -97 -22 -63 -23 -70 -102 -12 -132 22 -12 40 -11
125 5 107 20 147 39 180 82 18 24 22 46 24 132 6 180 -36 264 -169 330 -76 39
-98 65 -106 125 l-6 40 44 -15 c24 -9 117 -54 207 -100 89 -47 172 -85 183
-85 11 0 31 11 44 25 l25 24 0 1381 0 1381 -25 24 c-13 14 -36 25 -50 25 -14
0 -37 -11 -50 -25z"/>
<path d="M863 2251 c-74 -35 -120 -136 -110 -241 4 -30 18 -95 33 -145 38
-129 45 -180 31 -223 -27 -81 -82 -78 -323 19 -96 39 -186 69 -205 69 -47 0
-119 -38 -145 -77 -21 -32 -46 -112 -111 -363 -41 -161 -42 -234 0 -315 47
-93 153 -173 278 -209 74 -22 256 -56 297 -56 81 0 139 50 178 153 32 88 76
156 118 185 18 12 59 27 92 32 97 17 102 19 138 50 24 21 38 45 46 79 l11 48
152 0 c140 -1 159 1 235 27 45 15 87 24 92 21 18 -11 58 -90 100 -195 44 -110
94 -210 149 -296 18 -29 37 -69 41 -90 8 -35 7 -41 -18 -61 -36 -30 -79 -50
-127 -60 -33 -6 -43 -15 -58 -45 -18 -36 -18 -38 2 -82 26 -59 109 -142 168
-168 109 -48 267 13 348 134 36 54 53 68 81 68 40 0 75 23 95 62 46 89 5 183
-117 266 -39 27 -73 90 -124 237 -23 66 -58 149 -77 183 l-36 64 39 -21 c22
-11 118 -67 214 -123 l175 -104 0 -94 c0 -85 3 -100 27 -142 15 -25 45 -60 67
-77 30 -24 40 -40 45 -72 15 -91 63 -135 140 -126 80 9 169 28 196 42 69 35
77 102 25 205 -19 38 -35 72 -35 75 0 3 31 5 68 5 59 0 75 4 117 31 64 41 164
142 199 200 19 34 33 84 51 185 38 214 30 194 78 194 49 0 103 29 119 65 11
25 28 34 28 15 0 -6 15 -18 34 -26 62 -30 96 -15 201 91 87 87 149 134 162
121 10 -10 -20 -67 -51 -98 -17 -17 -55 -47 -83 -65 -29 -18 -60 -44 -68 -57
-57 -87 1 -233 100 -252 27 -5 60 0 116 16 95 27 119 22 119 -26 0 -19 -2 -34
-4 -34 -2 0 -31 -7 -63 -15 -32 -8 -135 -23 -230 -35 -201 -23 -250 -33 -306
-62 -64 -32 -88 -54 -137 -125 -33 -48 -61 -76 -104 -102 -113 -68 -137 -176
-71 -309 40 -79 111 -164 159 -189 51 -28 161 -20 303 21 173 49 197 52 268
27 73 -26 118 -26 172 -1 46 20 155 91 191 123 40 37 21 108 -33 121 -29 7
-58 -6 -158 -71 -47 -31 -76 -43 -90 -40 -12 3 -47 13 -77 22 -70 20 -127 14
-290 -30 -175 -47 -196 -50 -224 -32 -39 26 -106 135 -106 173 0 34 4 38 80
87 19 12 49 42 67 67 103 139 105 140 363 170 205 24 330 52 372 82 84 60 91
228 12 298 -60 52 -141 63 -234 30 -30 -10 -59 -15 -63 -11 -4 4 22 30 59 57
83 61 130 121 151 193 34 119 -24 231 -120 231 -67 0 -158 -51 -252 -141 l-80
-77 -30 16 c-69 36 -158 14 -193 -48 -14 -24 -21 -27 -52 -23 -95 13 -135 -54
-177 -292 l-27 -160 -81 -82 -81 -83 -82 0 c-94 0 -138 -15 -170 -55 -32 -40
-28 -84 17 -173 l39 -78 -42 -10 -43 -10 -12 46 c-9 34 -26 58 -69 98 l-57 53
3 85 c3 93 -15 151 -59 190 -13 12 -125 81 -249 154 -190 112 -233 133 -275
137 -61 6 -110 -23 -138 -80 -25 -50 -16 -98 38 -201 23 -44 59 -128 80 -186
63 -177 103 -240 200 -316 l40 -31 -40 -17 c-51 -22 -69 -38 -117 -109 -60
-88 -146 -121 -194 -76 l-23 21 57 39 c119 80 117 78 115 161 -2 91 -18 137
-88 247 -30 48 -76 138 -101 201 -86 214 -127 279 -199 311 -54 25 -79 24
-171 -8 -72 -24 -93 -27 -239 -27 -132 -1 -166 -4 -192 -18 -43 -24 -72 -64
-79 -109 -6 -35 -10 -39 -43 -44 -188 -30 -285 -115 -351 -309 -9 -27 -24 -54
-32 -60 -22 -13 -249 34 -320 67 -100 45 -148 104 -148 180 0 32 89 383 111
440 7 15 17 27 24 27 6 0 77 -27 158 -60 181 -75 254 -94 320 -86 183 25 254
185 183 416 -42 134 -52 201 -37 239 l13 31 89 0 c76 0 92 3 109 20 25 25 26
71 1 101 -18 22 -28 24 -118 27 -80 2 -106 -1 -140 -17z"/>
</g>
</svg>
