<?xml version="1.0" standalone="no"?>
<!DOCTYPE svg PUBLIC "-//W3C//DTD SVG 20010904//EN"
 "http://www.w3.org/TR/2001/REC-SVG-20010904/DTD/svg10.dtd">
<svg version="1.0" xmlns="http://www.w3.org/2000/svg"
 width="512.000000pt" height="512.000000pt" viewBox="0 0 512.000000 512.000000"
 preserveAspectRatio="xMidYMid meet">

<g transform="translate(0.000000,512.000000) scale(0.100000,-0.100000)"
fill="#000000" stroke="none">
<path d="M1670 4932 l0 -188 288 -92 287 -92 598 0 597 0 -2 232 -3 232 -225
48 -225 47 -657 1 -658 0 0 -188z m1458 -2 c78 -16 144 -30 147 -30 3 0 5 -40
5 -90 l0 -90 -512 0 -513 0 -212 67 -213 68 0 53 0 52 578 0 579 0 141 -30z"/>
<path d="M3840 4640 l0 -80 80 0 80 0 0 80 0 80 -80 0 -80 0 0 -80z"/>
<path d="M3840 4320 l0 -80 80 0 80 0 0 80 0 80 -80 0 -80 0 0 -80z"/>
<path d="M1700 4135 c-53 -158 -65 -185 -82 -185 -11 0 -50 27 -86 60 l-67 60
-95 0 -95 0 -262 -203 -262 -202 0 -123 -1 -122 -375 -187 -375 -188 0 -240 1
-240 71 -55 70 -55 114 -227 114 -228 0 -220 0 -220 175 0 175 0 490 245 490
245 108 0 107 0 120 -120 120 -120 61 0 c61 0 61 0 110 -52 43 -46 66 -89 179
-345 l129 -293 162 0 163 0 94 80 94 79 123 3 123 3 303 472 304 473 0 150 0
150 -132 198 c-72 108 -212 305 -311 437 l-180 239 -58 231 -58 230 -1 228 0
227 -194 0 -194 0 -67 -269 c-62 -248 -69 -271 -99 -300 l-32 -31 -129 86
c-72 48 -133 89 -137 93 -4 3 4 49 17 101 19 73 25 121 25 208 l0 112 -344 0
-344 0 -62 -185z m600 13 c0 -7 -18 -80 -39 -163 l-38 -150 236 -157 236 -158
92 92 91 91 57 228 57 229 54 0 54 0 0 -145 0 -145 67 -268 67 -267 180 -240
c100 -132 238 -325 308 -430 l128 -189 0 -96 0 -95 -272 -422 -271 -423 -106
0 -107 0 -94 -80 -95 -80 -86 0 -85 0 -114 258 -113 257 -81 83 -81 82 -60 0
-60 0 -125 125 -125 125 -152 0 -153 0 -500 -250 -500 -250 -70 0 -70 0 0 160
0 160 -131 262 c-125 249 -135 265 -185 306 l-54 43 0 154 0 155 370 185 369
185 3 132 3 132 209 163 c198 155 212 163 253 163 41 0 50 -5 107 -60 l63 -60
106 0 105 0 62 185 62 185 214 0 c165 0 214 -3 214 -12z"/>
<path d="M4320 3840 l0 -80 80 0 80 0 0 80 0 80 -80 0 -80 0 0 -80z"/>
<path d="M4320 3520 l0 -80 80 0 80 0 0 80 0 80 -80 0 -80 0 0 -80z"/>
<path d="M4800 3520 l0 -80 80 0 80 0 0 80 0 80 -80 0 -80 0 0 -80z"/>
<path d="M4320 3200 l0 -80 80 0 80 0 0 80 0 80 -80 0 -80 0 0 -80z"/>
<path d="M4800 3200 l0 -80 80 0 80 0 0 80 0 80 -80 0 -80 0 0 -80z"/>
<path d="M4320 2720 l0 -80 80 0 80 0 0 80 0 80 -80 0 -80 0 0 -80z"/>
<path d="M4390 1465 l-54 -55 79 -80 80 -80 -113 -113 -112 -112 170 -170 170
-170 165 165 c91 91 165 169 165 174 0 10 -481 496 -490 496 -3 0 -30 -25 -60
-55z m273 -497 l-57 -58 -53 52 c-29 29 -53 57 -53 62 0 6 23 34 52 63 l52 53
58 -57 58 -57 -57 -58z"/>
<path d="M2710 857 l0 -103 79 -134 78 -135 167 -3 166 -2 0 240 0 240 -245 0
-245 0 0 -103z m330 -137 l0 -80 -42 0 c-43 0 -43 1 -83 71 -22 39 -41 75 -43
80 -2 5 35 9 82 9 l86 0 0 -80z"/>
<path d="M3872 627 l-282 -282 170 -170 170 -170 283 283 282 282 -170 170
-170 170 -283 -283z m229 -221 l-169 -169 -29 24 c-15 13 -41 38 -57 57 l-29
34 169 169 169 169 57 -57 58 -58 -169 -169z"/>
</g>
</svg>
