<svg width="32" height="32" viewBox="0 0 32 32" fill="none" xmlns="http://www.w3.org/2000/svg">
<path d="M29.4737 25.0588C30.1225 25.0591 30.7463 25.3035 31.2158 25.7414C31.6854 26.1792 31.9647 26.7769 31.9958 27.4107C32.027 28.0444 31.8077 28.6656 31.3833 29.1455C30.9589 29.6254 30.362 29.9272 29.7162 29.9885L29.4737 30H2.52632C1.87753 29.9997 1.25374 29.7553 0.784191 29.3174C0.314647 28.8796 0.0353482 28.2819 0.00416966 27.6481C-0.0270088 27.0144 0.192323 26.3932 0.616716 25.9133C1.04111 25.4334 1.63803 25.1316 2.28379 25.0704L2.52632 25.0588H29.4737ZM29.4737 13.5294C30.1437 13.5294 30.7863 13.7897 31.2601 14.253C31.7338 14.7164 32 15.3448 32 16C32 16.6552 31.7338 17.2836 31.2601 17.747C30.7863 18.2103 30.1437 18.4706 29.4737 18.4706H2.52632C1.8563 18.4706 1.21372 18.2103 0.739941 17.747C0.266165 17.2836 0 16.6552 0 16C0 15.3448 0.266165 14.7164 0.739941 14.253C1.21372 13.7897 1.8563 13.5294 2.52632 13.5294H29.4737ZM29.4737 2C30.1437 2 30.7863 2.26029 31.2601 2.72362C31.7338 3.18694 32 3.81535 32 4.47059C32 5.12583 31.7338 5.75423 31.2601 6.21756C30.7863 6.68088 30.1437 6.94118 29.4737 6.94118H2.52632C1.8563 6.94118 1.21372 6.68088 0.739941 6.21756C0.266165 5.75423 0 5.12583 0 4.47059C0 3.81535 0.266165 3.18694 0.739941 2.72362C1.21372 2.26029 1.8563 2 2.52632 2H29.4737Z" fill="white"/>
</svg>
