<svg width="32" height="32" viewBox="0 0 32 32" fill="none" xmlns="http://www.w3.org/2000/svg">
<g clip-path="url(#clip0_686_1525)">
<path d="M12.2293 11.5554C13.1253 10.471 14.4818 9.77766 16 9.77766C17.5182 9.77766 18.8747 10.471 19.7707 11.5554C20.3606 12.2707 20.7349 13.1389 20.8501 14.0588C20.9653 14.9787 20.8165 15.9124 20.4212 16.751C20.0258 17.5896 19.4002 18.2985 18.6172 18.795C17.8342 19.2914 16.9262 19.555 15.9991 19.555C15.072 19.555 14.164 19.2914 13.381 18.795C12.5981 18.2985 11.9724 17.5896 11.5771 16.751C11.1817 15.9124 11.0329 14.9787 11.1481 14.0588C11.2633 13.1389 11.6394 12.2707 12.2293 11.5554ZM22.6649 14.6665C22.6649 13.543 22.3876 12.4834 21.8969 11.5554H29.3333C30.0406 11.5554 30.7189 11.8364 31.219 12.3365C31.719 12.8366 32 13.5149 32 14.2221V15.111C32 17.9323 29.856 20.8212 26.1067 21.8381C25.7214 21.146 25.1581 20.5694 24.4751 20.1681C23.7922 19.7667 23.0144 19.5552 22.2222 19.5554H20.5333C21.2072 18.932 21.7446 18.1757 22.1118 17.3343C22.4789 16.4929 22.6661 15.5846 22.6649 14.6665ZM22.2222 21.3332C22.5727 21.3323 22.9199 21.4006 23.2438 21.5343C23.5678 21.668 23.8621 21.8644 24.1099 22.1122C24.3577 22.36 24.5541 22.6543 24.6878 22.9783C24.8215 23.3022 24.8898 23.6494 24.8889 23.9999V24.8888C24.8889 28.3928 21.5822 31.9999 16 31.9999C10.4178 31.9999 7.11111 28.3928 7.11111 24.8888V23.9999C7.11017 23.6494 7.17851 23.3022 7.31219 22.9783C7.44587 22.6543 7.64226 22.36 7.89007 22.1122C8.13788 21.8644 8.43222 21.668 8.75618 21.5343C9.08014 21.4006 9.42732 21.3323 9.77778 21.3332H22.2222ZM0 15.111C0 17.9323 2.144 20.8212 5.89333 21.8381C6.27863 21.146 6.84191 20.5694 7.52487 20.1681C8.20782 19.7667 8.98563 19.5552 9.77778 19.5554H11.4667C10.7928 18.932 10.2554 18.1757 9.88825 17.3343C9.52109 16.4929 9.33215 15.5846 9.33333 14.6665C9.33333 13.543 9.61067 12.4834 10.1031 11.5554H2.66667C1.95942 11.5554 1.28115 11.8364 0.781049 12.3365C0.280952 12.8366 0 13.5149 0 14.2221V15.111ZM13.7778 4.88877C13.7778 3.59215 13.2627 2.34864 12.3459 1.4318C11.429 0.514956 10.1855 -0.00012207 8.88889 -0.00012207C7.59227 -0.00012207 6.34877 0.514956 5.43192 1.4318C4.51508 2.34864 4 3.59215 4 4.88877C4 6.18538 4.51508 7.42889 5.43192 8.34573C6.34877 9.26258 7.59227 9.77766 8.88889 9.77766C10.1855 9.77766 11.429 9.26258 12.3459 8.34573C13.2627 7.42889 13.7778 6.18538 13.7778 4.88877ZM28 4.88877C28 3.59215 27.4849 2.34864 26.5681 1.4318C25.6512 0.514956 24.4077 -0.00012207 23.1111 -0.00012207C21.8145 -0.00012207 20.571 0.514956 19.6541 1.4318C18.7373 2.34864 18.2222 3.59215 18.2222 4.88877C18.2222 6.18538 18.7373 7.42889 19.6541 8.34573C20.571 9.26258 21.8145 9.77766 23.1111 9.77766C24.4077 9.77766 25.6512 9.26258 26.5681 8.34573C27.4849 7.42889 28 6.18538 28 4.88877Z" fill="white"/>
</g>
<defs>
<clipPath id="clip0_686_1525">
<rect width="32" height="32" fill="white"/>
</clipPath>
</defs>
</svg>
