<svg width="32" height="32" viewBox="0 0 32 32" fill="none" xmlns="http://www.w3.org/2000/svg">
<g clip-path="url(#clip0_686_1529)">
<path d="M30.1038 3.53498L28.0508 2.59232V17.7927L31.7739 7.92846C32.402 6.21147 31.6819 4.24198 30.1038 3.53498ZM0.227292 9.76328L7.82666 29.879C8.05043 30.491 8.43214 31.0179 8.92484 31.3947C9.41753 31.7715 9.99972 31.9819 10.5998 32C10.9982 32 11.4118 31.9158 11.8102 31.7307L23.102 26.5965C24.2511 26.0747 24.9559 24.829 24.9865 23.5834C25.0018 23.1457 24.9252 22.6575 24.7873 22.2199L17.1267 2.10416C16.9109 1.48756 16.5307 0.956869 16.0359 0.581461C15.5412 0.206053 14.9548 0.00340048 14.3535 0C13.9552 0 13.5568 0.101 13.1738 0.252499L1.89731 5.38664C1.14774 5.72388 0.550743 6.37437 0.237577 7.19509C-0.0755891 8.01581 -0.0792884 8.93957 0.227292 9.76328ZM24.9712 3.36665C24.9712 2.47376 24.6484 1.61744 24.0737 0.986069C23.499 0.354699 22.7196 0 21.9069 0H19.6854L24.9712 14.0389" fill="white"/>
</g>
<defs>
<clipPath id="clip0_686_1529">
<rect width="32" height="32" fill="white"/>
</clipPath>
</defs>
</svg>
