<svg width="184" height="64" viewBox="0 0 184 64" fill="none" xmlns="http://www.w3.org/2000/svg">
<path d="M17.71 11.445C17.3133 10.7917 16.765 10.29 16.065 9.94C15.3883 9.59 14.5833 9.415 13.65 9.415C11.9233 9.415 10.5583 9.975 9.555 11.095C8.575 12.215 8.085 13.72 8.085 15.61C8.085 17.7333 8.61 19.355 9.66 20.475C10.7333 21.5717 12.285 22.12 14.315 22.12C16.7183 22.12 18.4333 21.035 19.46 18.865H12.565V13.93H25.375V20.58C24.8383 21.8867 24.045 23.1117 22.995 24.255C21.9683 25.3983 20.6617 26.3433 19.075 27.09C17.4883 27.8133 15.68 28.175 13.65 28.175C11.1767 28.175 8.98333 27.65 7.07 26.6C5.18 25.5267 3.71 24.045 2.66 22.155C1.63333 20.2417 1.12 18.06 1.12 15.61C1.12 13.1833 1.63333 11.025 2.66 9.135C3.71 7.22167 5.18 5.74 7.07 4.69C8.96 3.61667 11.1417 3.08 13.615 3.08C16.7183 3.08 19.285 3.82667 21.315 5.32C23.345 6.81333 24.605 8.855 25.095 11.445H17.71ZM46.5093 17.955C46.5093 18.4917 46.4743 19.0283 46.4043 19.565H33.4193C33.4893 20.6383 33.7809 21.4433 34.2943 21.98C34.8309 22.4933 35.5076 22.75 36.3243 22.75C37.4676 22.75 38.2843 22.2367 38.7743 21.21H46.0893C45.7859 22.5633 45.1909 23.7767 44.3043 24.85C43.4409 25.9 42.3443 26.7283 41.0143 27.335C39.6843 27.9417 38.2143 28.245 36.6043 28.245C34.6676 28.245 32.9409 27.8367 31.4243 27.02C29.9309 26.2033 28.7526 25.0367 27.8893 23.52C27.0493 22.0033 26.6293 20.2183 26.6293 18.165C26.6293 16.1117 27.0493 14.3383 27.8893 12.845C28.7293 11.3283 29.8959 10.1617 31.3893 9.345C32.9059 8.52833 34.6443 8.12 36.6043 8.12C38.5409 8.12 40.2559 8.51667 41.7493 9.31C43.2426 10.1033 44.4093 11.2467 45.2493 12.74C46.0893 14.21 46.5093 15.9483 46.5093 17.955ZM39.5093 16.24C39.5093 15.4 39.2293 14.7467 38.6693 14.28C38.1093 13.79 37.4093 13.545 36.5693 13.545C35.7293 13.545 35.0409 13.7783 34.5043 14.245C33.9676 14.6883 33.6176 15.3533 33.4543 16.24H39.5093ZM57.7516 28.245C55.7916 28.245 54.03 27.8367 52.4666 27.02C50.9266 26.2033 49.7133 25.0367 48.8266 23.52C47.94 22.0033 47.4966 20.2183 47.4966 18.165C47.4966 16.135 47.94 14.3617 48.8266 12.845C49.7366 11.3283 50.9616 10.1617 52.5016 9.345C54.065 8.52833 55.8266 8.12 57.7866 8.12C59.7466 8.12 61.4966 8.52833 63.0366 9.345C64.6 10.1617 65.825 11.3283 66.7116 12.845C67.6216 14.3617 68.0766 16.135 68.0766 18.165C68.0766 20.195 67.6216 21.98 66.7116 23.52C65.825 25.0367 64.6 26.2033 63.0366 27.02C61.4733 27.8367 59.7116 28.245 57.7516 28.245ZM57.7516 22.295C58.7083 22.295 59.5016 21.945 60.1316 21.245C60.785 20.5217 61.1116 19.495 61.1116 18.165C61.1116 16.835 60.785 15.82 60.1316 15.12C59.5016 14.42 58.72 14.07 57.7866 14.07C56.8533 14.07 56.0716 14.42 55.4416 15.12C54.8116 15.82 54.4966 16.835 54.4966 18.165C54.4966 19.5183 54.8 20.545 55.4066 21.245C56.0133 21.945 56.795 22.295 57.7516 22.295ZM54.8603 63.13L52.1303 59.035C51.3603 59.175 50.5786 59.245 49.7853 59.245C47.4753 59.245 45.352 58.7083 43.4153 57.635C41.4786 56.5383 39.9386 55.0333 38.7953 53.12C37.6753 51.1833 37.1153 49.0017 37.1153 46.575C37.1153 44.1483 37.6753 41.9783 38.7953 40.065C39.9386 38.1283 41.4786 36.6233 43.4153 35.55C45.352 34.4767 47.4753 33.94 49.7853 33.94C52.1186 33.94 54.242 34.4767 56.1553 35.55C58.092 36.6233 59.6203 38.1283 60.7403 40.065C61.8603 41.9783 62.4203 44.1483 62.4203 46.575C62.4203 48.605 62.012 50.4833 61.1953 52.21C60.3786 53.9133 59.2586 55.3367 57.8353 56.48L63.0503 63.13H54.8603ZM44.1153 46.575C44.1153 48.5117 44.617 50.0517 45.6203 51.195C46.6236 52.315 48.012 52.875 49.7853 52.875C51.5353 52.875 52.912 52.3033 53.9153 51.16C54.942 50.0167 55.4553 48.4883 55.4553 46.575C55.4553 44.615 54.942 43.075 53.9153 41.955C52.912 40.8117 51.5353 40.24 49.7853 40.24C48.012 40.24 46.6236 40.8117 45.6203 41.955C44.617 43.075 44.1153 44.615 44.1153 46.575ZM84.9283 39.365V59H78.0333V56.2C77.45 57.0867 76.645 57.81 75.6183 58.37C74.5917 58.9067 73.4133 59.175 72.0833 59.175C69.7967 59.175 67.9883 58.4283 66.6583 56.935C65.3517 55.4183 64.6983 53.365 64.6983 50.775V39.365H71.5233V49.9C71.5233 51.02 71.815 51.9067 72.3983 52.56C73.005 53.19 73.7983 53.505 74.7783 53.505C75.7817 53.505 76.575 53.19 77.1583 52.56C77.7417 51.9067 78.0333 51.02 78.0333 49.9V39.365H84.9283ZM91.5975 37.545C90.3841 37.545 89.4041 37.2183 88.6575 36.565C87.9341 35.8883 87.5725 35.0483 87.5725 34.045C87.5725 33.0183 87.9341 32.1667 88.6575 31.49C89.4041 30.8133 90.3841 30.475 91.5975 30.475C92.7875 30.475 93.7441 30.8133 94.4675 31.49C95.2141 32.1667 95.5875 33.0183 95.5875 34.045C95.5875 35.0483 95.2141 35.8883 94.4675 36.565C93.7441 37.2183 92.7875 37.545 91.5975 37.545ZM94.9925 39.365V59H88.1325V39.365H94.9925ZM104.709 53.295H113.074V59H97.1491V53.575L104.954 45.07H97.2191V39.365H112.794V44.79L104.709 53.295Z" fill="white"/>
<path d="M116.512 52.1H117.826V53H115.336V48.77H116.512V52.1ZM122.339 51.278C122.339 51.37 122.333 51.462 122.321 51.554H120.095C120.107 51.738 120.157 51.876 120.245 51.968C120.337 52.056 120.453 52.1 120.593 52.1C120.789 52.1 120.929 52.012 121.013 51.836H122.267C122.215 52.068 122.113 52.276 121.961 52.46C121.813 52.64 121.625 52.782 121.397 52.886C121.169 52.99 120.917 53.042 120.641 53.042C120.309 53.042 120.013 52.972 119.753 52.832C119.497 52.692 119.295 52.492 119.147 52.232C119.003 51.972 118.931 51.666 118.931 51.314C118.931 50.962 119.003 50.658 119.147 50.402C119.291 50.142 119.491 49.942 119.747 49.802C120.007 49.662 120.305 49.592 120.641 49.592C120.973 49.592 121.267 49.66 121.523 49.796C121.779 49.932 121.979 50.128 122.123 50.384C122.267 50.636 122.339 50.934 122.339 51.278ZM121.139 50.984C121.139 50.84 121.091 50.728 120.995 50.648C120.899 50.564 120.779 50.522 120.635 50.522C120.491 50.522 120.373 50.562 120.281 50.642C120.189 50.718 120.129 50.832 120.101 50.984H121.139ZM123.469 51.314C123.469 50.966 123.531 50.662 123.655 50.402C123.783 50.142 123.955 49.942 124.171 49.802C124.391 49.662 124.635 49.592 124.903 49.592C125.135 49.592 125.335 49.638 125.503 49.73C125.671 49.822 125.801 49.946 125.893 50.102V49.634H127.069V53H125.893V52.532C125.801 52.688 125.669 52.812 125.497 52.904C125.329 52.996 125.131 53.042 124.903 53.042C124.635 53.042 124.391 52.972 124.171 52.832C123.955 52.692 123.783 52.492 123.655 52.232C123.531 51.968 123.469 51.662 123.469 51.314ZM125.893 51.314C125.893 51.098 125.833 50.928 125.713 50.804C125.597 50.68 125.453 50.618 125.281 50.618C125.105 50.618 124.959 50.68 124.843 50.804C124.727 50.924 124.669 51.094 124.669 51.314C124.669 51.53 124.727 51.702 124.843 51.83C124.959 51.954 125.105 52.016 125.281 52.016C125.453 52.016 125.597 51.954 125.713 51.83C125.833 51.706 125.893 51.534 125.893 51.314ZM129.755 50.228C129.887 50.036 130.047 49.884 130.235 49.772C130.423 49.66 130.625 49.604 130.841 49.604V50.858H130.511C130.255 50.858 130.065 50.908 129.941 51.008C129.817 51.108 129.755 51.282 129.755 51.53V53H128.579V49.634H129.755V50.228ZM134.304 49.604C134.692 49.604 135 49.734 135.228 49.994C135.456 50.25 135.57 50.598 135.57 51.038V53H134.394V51.194C134.394 51.002 134.344 50.852 134.244 50.744C134.144 50.632 134.01 50.576 133.842 50.576C133.666 50.576 133.528 50.632 133.428 50.744C133.328 50.852 133.278 51.002 133.278 51.194V53H132.102V49.634H133.278V50.114C133.382 49.962 133.522 49.84 133.698 49.748C133.874 49.652 134.076 49.604 134.304 49.604ZM141.744 50.162C141.676 50.05 141.582 49.964 141.462 49.904C141.346 49.844 141.208 49.814 141.048 49.814C140.752 49.814 140.518 49.91 140.346 50.102C140.178 50.294 140.094 50.552 140.094 50.876C140.094 51.24 140.184 51.518 140.364 51.71C140.548 51.898 140.814 51.992 141.162 51.992C141.574 51.992 141.868 51.806 142.044 51.434H140.862V50.588H143.058V51.728C142.966 51.952 142.83 52.162 142.65 52.358C142.474 52.554 142.25 52.716 141.978 52.844C141.706 52.968 141.396 53.03 141.048 53.03C140.624 53.03 140.248 52.94 139.92 52.76C139.596 52.576 139.344 52.322 139.164 51.998C138.988 51.67 138.9 51.296 138.9 50.876C138.9 50.46 138.988 50.09 139.164 49.766C139.344 49.438 139.596 49.184 139.92 49.004C140.244 48.82 140.618 48.728 141.042 48.728C141.574 48.728 142.014 48.856 142.362 49.112C142.71 49.368 142.926 49.718 143.01 50.162H141.744ZM147.641 51.278C147.641 51.37 147.635 51.462 147.623 51.554H145.397C145.409 51.738 145.459 51.876 145.547 51.968C145.639 52.056 145.755 52.1 145.895 52.1C146.091 52.1 146.231 52.012 146.315 51.836H147.569C147.517 52.068 147.415 52.276 147.263 52.46C147.115 52.64 146.927 52.782 146.699 52.886C146.471 52.99 146.219 53.042 145.943 53.042C145.611 53.042 145.315 52.972 145.055 52.832C144.799 52.692 144.597 52.492 144.449 52.232C144.305 51.972 144.233 51.666 144.233 51.314C144.233 50.962 144.305 50.658 144.449 50.402C144.593 50.142 144.793 49.942 145.049 49.802C145.309 49.662 145.607 49.592 145.943 49.592C146.275 49.592 146.569 49.66 146.825 49.796C147.081 49.932 147.281 50.128 147.425 50.384C147.569 50.636 147.641 50.934 147.641 51.278ZM146.441 50.984C146.441 50.84 146.393 50.728 146.297 50.648C146.201 50.564 146.081 50.522 145.937 50.522C145.793 50.522 145.675 50.562 145.583 50.642C145.491 50.718 145.431 50.832 145.403 50.984H146.441ZM150.528 53.042C150.192 53.042 149.89 52.972 149.622 52.832C149.358 52.692 149.15 52.492 148.998 52.232C148.846 51.972 148.77 51.666 148.77 51.314C148.77 50.966 148.846 50.662 148.998 50.402C149.154 50.142 149.364 49.942 149.628 49.802C149.896 49.662 150.198 49.592 150.534 49.592C150.87 49.592 151.17 49.662 151.434 49.802C151.702 49.942 151.912 50.142 152.064 50.402C152.22 50.662 152.298 50.966 152.298 51.314C152.298 51.662 152.22 51.968 152.064 52.232C151.912 52.492 151.702 52.692 151.434 52.832C151.166 52.972 150.864 53.042 150.528 53.042ZM150.528 52.022C150.692 52.022 150.828 51.962 150.936 51.842C151.048 51.718 151.104 51.542 151.104 51.314C151.104 51.086 151.048 50.912 150.936 50.792C150.828 50.672 150.694 50.612 150.534 50.612C150.374 50.612 150.24 50.672 150.132 50.792C150.024 50.912 149.97 51.086 149.97 51.314C149.97 51.546 150.022 51.722 150.126 51.842C150.23 51.962 150.364 52.022 150.528 52.022ZM154.859 49.592C155.087 49.592 155.285 49.638 155.453 49.73C155.625 49.822 155.757 49.946 155.849 50.102V49.634H157.025V52.964C157.025 53.28 156.965 53.564 156.845 53.816C156.725 54.072 156.537 54.276 156.281 54.428C156.029 54.58 155.709 54.656 155.321 54.656C154.801 54.656 154.385 54.534 154.073 54.29C153.761 54.046 153.583 53.714 153.539 53.294H154.697C154.721 53.402 154.781 53.486 154.877 53.546C154.973 53.606 155.097 53.636 155.249 53.636C155.649 53.636 155.849 53.412 155.849 52.964V52.532C155.757 52.688 155.625 52.812 155.453 52.904C155.285 52.996 155.087 53.042 154.859 53.042C154.591 53.042 154.347 52.972 154.127 52.832C153.911 52.692 153.739 52.492 153.611 52.232C153.487 51.968 153.425 51.662 153.425 51.314C153.425 50.966 153.487 50.662 153.611 50.402C153.739 50.142 153.911 49.942 154.127 49.802C154.347 49.662 154.591 49.592 154.859 49.592ZM155.849 51.314C155.849 51.098 155.789 50.928 155.669 50.804C155.553 50.68 155.409 50.618 155.237 50.618C155.061 50.618 154.915 50.68 154.799 50.804C154.683 50.924 154.625 51.094 154.625 51.314C154.625 51.53 154.683 51.702 154.799 51.83C154.915 51.954 155.061 52.016 155.237 52.016C155.409 52.016 155.553 51.954 155.669 51.83C155.789 51.706 155.849 51.534 155.849 51.314ZM159.711 50.228C159.843 50.036 160.003 49.884 160.191 49.772C160.379 49.66 160.581 49.604 160.797 49.604V50.858H160.467C160.211 50.858 160.021 50.908 159.897 51.008C159.773 51.108 159.711 51.282 159.711 51.53V53H158.535V49.634H159.711V50.228ZM161.866 51.314C161.866 50.966 161.928 50.662 162.052 50.402C162.18 50.142 162.352 49.942 162.568 49.802C162.788 49.662 163.032 49.592 163.3 49.592C163.532 49.592 163.732 49.638 163.9 49.73C164.068 49.822 164.198 49.946 164.29 50.102V49.634H165.466V53H164.29V52.532C164.198 52.688 164.066 52.812 163.894 52.904C163.726 52.996 163.528 53.042 163.3 53.042C163.032 53.042 162.788 52.972 162.568 52.832C162.352 52.692 162.18 52.492 162.052 52.232C161.928 51.968 161.866 51.662 161.866 51.314ZM164.29 51.314C164.29 51.098 164.23 50.928 164.11 50.804C163.994 50.68 163.85 50.618 163.678 50.618C163.502 50.618 163.356 50.68 163.24 50.804C163.124 50.924 163.066 51.094 163.066 51.314C163.066 51.53 163.124 51.702 163.24 51.83C163.356 51.954 163.502 52.016 163.678 52.016C163.85 52.016 163.994 51.954 164.11 51.83C164.23 51.706 164.29 51.534 164.29 51.314ZM168.153 50.102C168.245 49.946 168.375 49.822 168.543 49.73C168.711 49.638 168.909 49.592 169.137 49.592C169.405 49.592 169.647 49.662 169.863 49.802C170.083 49.942 170.255 50.142 170.379 50.402C170.507 50.662 170.571 50.966 170.571 51.314C170.571 51.662 170.507 51.968 170.379 52.232C170.255 52.492 170.083 52.692 169.863 52.832C169.647 52.972 169.405 53.042 169.137 53.042C168.909 53.042 168.711 52.996 168.543 52.904C168.379 52.812 168.249 52.688 168.153 52.532V54.608H166.977V49.634H168.153V50.102ZM169.377 51.314C169.377 51.094 169.317 50.924 169.197 50.804C169.081 50.68 168.937 50.618 168.765 50.618C168.593 50.618 168.447 50.68 168.327 50.804C168.211 50.928 168.153 51.098 168.153 51.314C168.153 51.534 168.211 51.706 168.327 51.83C168.447 51.954 168.593 52.016 168.765 52.016C168.937 52.016 169.081 51.954 169.197 51.83C169.317 51.702 169.377 51.53 169.377 51.314ZM174.109 49.604C174.493 49.604 174.797 49.734 175.021 49.994C175.249 50.25 175.363 50.598 175.363 51.038V53H174.187V51.194C174.187 51.002 174.137 50.852 174.037 50.744C173.937 50.632 173.803 50.576 173.635 50.576C173.459 50.576 173.321 50.632 173.221 50.744C173.121 50.852 173.071 51.002 173.071 51.194V53H171.895V48.56H173.071V50.114C173.175 49.962 173.315 49.84 173.491 49.748C173.671 49.652 173.877 49.604 174.109 49.604ZM180.472 49.634L178.336 54.602H177.058L177.862 52.856L176.482 49.634H177.79L178.498 51.542L179.182 49.634H180.472ZM182.19 53.048C181.982 53.048 181.814 52.992 181.686 52.88C181.562 52.764 181.5 52.618 181.5 52.442C181.5 52.266 181.562 52.12 181.686 52.004C181.814 51.888 181.982 51.83 182.19 51.83C182.394 51.83 182.558 51.888 182.682 52.004C182.81 52.12 182.874 52.266 182.874 52.442C182.874 52.614 182.81 52.758 182.682 52.874C182.558 52.99 182.394 53.048 182.19 53.048ZM119.122 54.77V59H117.946V57.302H116.512V59H115.336V54.77H116.512V56.36H117.946V54.77H119.122ZM120.443 57.314C120.443 56.966 120.505 56.662 120.629 56.402C120.757 56.142 120.929 55.942 121.145 55.802C121.365 55.662 121.609 55.592 121.877 55.592C122.109 55.592 122.309 55.638 122.477 55.73C122.645 55.822 122.775 55.946 122.867 56.102V55.634H124.043V59H122.867V58.532C122.775 58.688 122.643 58.812 122.471 58.904C122.303 58.996 122.105 59.042 121.877 59.042C121.609 59.042 121.365 58.972 121.145 58.832C120.929 58.692 120.757 58.492 120.629 58.232C120.505 57.968 120.443 57.662 120.443 57.314ZM122.867 57.314C122.867 57.098 122.807 56.928 122.687 56.804C122.571 56.68 122.427 56.618 122.255 56.618C122.079 56.618 121.933 56.68 121.817 56.804C121.701 56.924 121.643 57.094 121.643 57.314C121.643 57.53 121.701 57.702 121.817 57.83C121.933 57.954 122.079 58.016 122.255 58.016C122.427 58.016 122.571 57.954 122.687 57.83C122.807 57.706 122.867 57.534 122.867 57.314ZM127.167 57.89L127.797 55.634H129.051L127.893 59H126.429L125.271 55.634H126.525L127.167 57.89ZM133.506 57.278C133.506 57.37 133.5 57.462 133.488 57.554H131.262C131.274 57.738 131.324 57.876 131.412 57.968C131.504 58.056 131.62 58.1 131.76 58.1C131.956 58.1 132.096 58.012 132.18 57.836H133.434C133.382 58.068 133.28 58.276 133.128 58.46C132.98 58.64 132.792 58.782 132.564 58.886C132.336 58.99 132.084 59.042 131.808 59.042C131.476 59.042 131.18 58.972 130.92 58.832C130.664 58.692 130.462 58.492 130.314 58.232C130.17 57.972 130.098 57.666 130.098 57.314C130.098 56.962 130.17 56.658 130.314 56.402C130.458 56.142 130.658 55.942 130.914 55.802C131.174 55.662 131.472 55.592 131.808 55.592C132.14 55.592 132.434 55.66 132.69 55.796C132.946 55.932 133.146 56.128 133.29 56.384C133.434 56.636 133.506 56.934 133.506 57.278ZM132.306 56.984C132.306 56.84 132.258 56.728 132.162 56.648C132.066 56.564 131.946 56.522 131.802 56.522C131.658 56.522 131.54 56.562 131.448 56.642C131.356 56.718 131.296 56.832 131.268 56.984H132.306ZM139.683 54.77V55.706H137.991V56.45H139.239V57.344H137.991V59H136.815V54.77H139.683ZM144.463 55.634V59H143.281V58.52C143.181 58.672 143.043 58.796 142.867 58.892C142.691 58.984 142.489 59.03 142.261 59.03C141.869 59.03 141.559 58.902 141.331 58.646C141.107 58.386 140.995 58.034 140.995 57.59V55.634H142.165V57.44C142.165 57.632 142.215 57.784 142.315 57.896C142.419 58.004 142.555 58.058 142.723 58.058C142.895 58.058 143.031 58.004 143.131 57.896C143.231 57.784 143.281 57.632 143.281 57.44V55.634H144.463ZM148.174 55.604C148.562 55.604 148.87 55.734 149.098 55.994C149.326 56.25 149.44 56.598 149.44 57.038V59H148.264V57.194C148.264 57.002 148.214 56.852 148.114 56.744C148.014 56.632 147.88 56.576 147.712 56.576C147.536 56.576 147.398 56.632 147.298 56.744C147.198 56.852 147.148 57.002 147.148 57.194V59H145.972V55.634H147.148V56.114C147.252 55.962 147.392 55.84 147.568 55.748C147.744 55.652 147.946 55.604 148.174 55.604ZM151.495 59.048C151.287 59.048 151.119 58.992 150.991 58.88C150.867 58.764 150.805 58.618 150.805 58.442C150.805 58.266 150.867 58.12 150.991 58.004C151.119 57.888 151.287 57.83 151.495 57.83C151.699 57.83 151.863 57.888 151.987 58.004C152.115 58.12 152.179 58.266 152.179 58.442C152.179 58.614 152.115 58.758 151.987 58.874C151.863 58.99 151.699 59.048 151.495 59.048Z" fill="white"/>
</svg>
