<svg width="52" height="32" viewBox="0 0 52 32" fill="none" xmlns="http://www.w3.org/2000/svg">
<path d="M9.108 4.486C8.904 4.15 8.622 3.892 8.262 3.712C7.914 3.532 7.5 3.442 7.02 3.442C6.132 3.442 5.43 3.73 4.914 4.306C4.41 4.882 4.158 5.656 4.158 6.628C4.158 7.72 4.428 8.554 4.968 9.13C5.52 9.694 6.318 9.976 7.362 9.976C8.598 9.976 9.48 9.418 10.008 8.302H6.462V5.764H13.05V9.184C12.774 9.856 12.366 10.486 11.826 11.074C11.298 11.662 10.626 12.148 9.81 12.532C8.994 12.904 8.064 13.09 7.02 13.09C5.748 13.09 4.62 12.82 3.636 12.28C2.664 11.728 1.908 10.966 1.368 9.994C0.84 9.01 0.576 7.888 0.576 6.628C0.576 5.38 0.84 4.27 1.368 3.298C1.908 2.314 2.664 1.552 3.636 1.012C4.608 0.46 5.73 0.184 7.002 0.184C8.598 0.184 9.918 0.568 10.962 1.336C12.006 2.104 12.654 3.154 12.906 4.486H9.108ZM23.919 7.834C23.919 8.11 23.901 8.386 23.865 8.662H17.187C17.223 9.214 17.373 9.628 17.637 9.904C17.913 10.168 18.261 10.3 18.681 10.3C19.269 10.3 19.689 10.036 19.941 9.508H23.703C23.547 10.204 23.241 10.828 22.785 11.38C22.341 11.92 21.777 12.346 21.093 12.658C20.409 12.97 19.653 13.126 18.825 13.126C17.829 13.126 16.941 12.916 16.161 12.496C15.393 12.076 14.787 11.476 14.343 10.696C13.911 9.916 13.695 8.998 13.695 7.942C13.695 6.886 13.911 5.974 14.343 5.206C14.775 4.426 15.375 3.826 16.143 3.406C16.923 2.986 17.817 2.776 18.825 2.776C19.821 2.776 20.703 2.98 21.471 3.388C22.239 3.796 22.839 4.384 23.271 5.152C23.703 5.908 23.919 6.802 23.919 7.834ZM20.319 6.952C20.319 6.52 20.175 6.184 19.887 5.944C19.599 5.692 19.239 5.566 18.807 5.566C18.375 5.566 18.021 5.686 17.745 5.926C17.469 6.154 17.289 6.496 17.205 6.952H20.319ZM29.7008 13.126C28.6928 13.126 27.7868 12.916 26.9828 12.496C26.1908 12.076 25.5668 11.476 25.1108 10.696C24.6548 9.916 24.4268 8.998 24.4268 7.942C24.4268 6.898 24.6548 5.986 25.1108 5.206C25.5788 4.426 26.2088 3.826 27.0008 3.406C27.8048 2.986 28.7108 2.776 29.7188 2.776C30.7268 2.776 31.6268 2.986 32.4188 3.406C33.2228 3.826 33.8528 4.426 34.3088 5.206C34.7768 5.986 35.0108 6.898 35.0108 7.942C35.0108 8.986 34.7768 9.904 34.3088 10.696C33.8528 11.476 33.2228 12.076 32.4188 12.496C31.6148 12.916 30.7088 13.126 29.7008 13.126ZM29.7008 10.066C30.1928 10.066 30.6008 9.886 30.9248 9.526C31.2608 9.154 31.4288 8.626 31.4288 7.942C31.4288 7.258 31.2608 6.736 30.9248 6.376C30.6008 6.016 30.1988 5.836 29.7188 5.836C29.2388 5.836 28.8368 6.016 28.5128 6.376C28.1888 6.736 28.0268 7.258 28.0268 7.942C28.0268 8.638 28.1828 9.166 28.4948 9.526C28.8068 9.886 29.2088 10.066 29.7008 10.066ZM22.0433 31.124L20.6392 29.018C20.2433 29.09 19.8413 29.126 19.4332 29.126C18.2452 29.126 17.1532 28.85 16.1572 28.298C15.1612 27.734 14.3692 26.96 13.7812 25.976C13.2052 24.98 12.9172 23.858 12.9172 22.61C12.9172 21.362 13.2052 20.246 13.7812 19.262C14.3692 18.266 15.1612 17.492 16.1572 16.94C17.1532 16.388 18.2452 16.112 19.4332 16.112C20.6332 16.112 21.7252 16.388 22.7093 16.94C23.7053 17.492 24.4913 18.266 25.0672 19.262C25.6433 20.246 25.9313 21.362 25.9313 22.61C25.9313 23.654 25.7213 24.62 25.3012 25.508C24.8813 26.384 24.3053 27.116 23.5732 27.704L26.2553 31.124H22.0433ZM16.5172 22.61C16.5172 23.606 16.7752 24.398 17.2912 24.986C17.8072 25.562 18.5212 25.85 19.4332 25.85C20.3332 25.85 21.0412 25.556 21.5572 24.968C22.0853 24.38 22.3493 23.594 22.3493 22.61C22.3493 21.602 22.0853 20.81 21.5572 20.234C21.0412 19.646 20.3332 19.352 19.4332 19.352C18.5212 19.352 17.8072 19.646 17.2912 20.234C16.7752 20.81 16.5172 21.602 16.5172 22.61ZM37.5068 18.902V29H33.9608V27.56C33.6608 28.016 33.2468 28.388 32.7188 28.676C32.1908 28.952 31.5848 29.09 30.9008 29.09C29.7248 29.09 28.7948 28.706 28.1108 27.938C27.4388 27.158 27.1028 26.102 27.1028 24.77V18.902H30.6128V24.32C30.6128 24.896 30.7628 25.352 31.0628 25.688C31.3748 26.012 31.7828 26.174 32.2868 26.174C32.8028 26.174 33.2108 26.012 33.5108 25.688C33.8108 25.352 33.9608 24.896 33.9608 24.32V18.902H37.5068ZM40.9366 17.966C40.3126 17.966 39.8086 17.798 39.4246 17.462C39.0526 17.114 38.8666 16.682 38.8666 16.166C38.8666 15.638 39.0526 15.2 39.4246 14.852C39.8086 14.504 40.3126 14.33 40.9366 14.33C41.5486 14.33 42.0406 14.504 42.4126 14.852C42.7966 15.2 42.9886 15.638 42.9886 16.166C42.9886 16.682 42.7966 17.114 42.4126 17.462C42.0406 17.798 41.5486 17.966 40.9366 17.966ZM42.6826 18.902V29H39.1546V18.902H42.6826ZM47.6797 26.066H51.9818V29H43.7917V26.21L47.8057 21.836H43.8277V18.902H51.8377V21.692L47.6797 26.066Z" fill="white"/>
</svg>
