<svg width="32" height="32" viewBox="0 0 32 32" fill="none" xmlns="http://www.w3.org/2000/svg">
<path d="M25.6667 18.6667C26.7275 18.6667 27.7449 19.0881 28.4951 19.8382C29.2452 20.5884 29.6667 21.6058 29.6667 22.6667V23.62C29.6667 28.3893 24.0533 32 16.3333 32C8.61333 32 3 28.5773 3 23.62V22.6667C3 21.6058 3.42143 20.5884 4.17157 19.8382C4.92172 19.0881 5.93913 18.6667 7 18.6667H25.6667ZM16.3333 0C17.3839 -1.56548e-08 18.4242 0.206926 19.3948 0.608964C20.3654 1.011 21.2473 1.60028 21.9902 2.34315C22.7331 3.08601 23.3223 3.96793 23.7244 4.93853C24.1264 5.90914 24.3333 6.94943 24.3333 8C24.3333 9.05058 24.1264 10.0909 23.7244 11.0615C23.3223 12.0321 22.7331 12.914 21.9902 13.6569C21.2473 14.3997 20.3654 14.989 19.3948 15.391C18.4242 15.7931 17.3839 16 16.3333 16C14.2116 16 12.1768 15.1571 10.6765 13.6569C9.17619 12.1566 8.33333 10.1217 8.33333 8C8.33333 5.87827 9.17619 3.84344 10.6765 2.34315C12.1768 0.842855 14.2116 3.16163e-08 16.3333 0Z" fill="white"/>
</svg>
