<svg width="19" height="19" viewBox="0 0 19 19" fill="none" xmlns="http://www.w3.org/2000/svg">
<path d="M14.8682 9.25C14.8685 9.37079 14.8319 9.4896 14.7619 9.59488C14.6919 9.70015 14.5909 9.78831 14.4687 9.85078L6.89635 13.7703C6.76868 13.8364 6.62245 13.8725 6.47278 13.8749C6.3231 13.8772 6.1754 13.8457 6.04493 13.7836C5.91569 13.7225 5.80804 13.6333 5.73303 13.5253C5.65803 13.4173 5.61838 13.2943 5.61816 13.1691V5.33095C5.61838 5.20567 5.65803 5.0827 5.73303 4.97469C5.80804 4.86668 5.91569 4.77752 6.04493 4.71638C6.1754 4.65428 6.3231 4.62278 6.47278 4.62512C6.62245 4.62747 6.76868 4.66358 6.89635 4.72972L14.4687 8.64922C14.5909 8.71169 14.6919 8.79985 14.7619 8.90512C14.8319 9.0104 14.8685 9.12921 14.8682 9.25Z" fill="white"/>
<circle cx="9.70166" cy="9.25" r="8.75" stroke="white"/>
</svg>
